<?xml version="1.0" encoding="utf-8"?>
<!-- Generator: Adobe Illustrator 18.1.1, SVG Export Plug-In . SVG Version: 6.00 Build 0)  -->
<svg version="1.1" id="Layer_1" xmlns="http://www.w3.org/2000/svg" xmlns:xlink="http://www.w3.org/1999/xlink" x="0px" y="0px"
	 viewBox="0 0 150 100" enable-background="new 0 0 150 100" xml:space="preserve">
<g>
	<path fill="#7FC892" d="M56.4,54.6c0,0-10.2-18-0.6-34.1c8.1-13.6,28.2-14,37.3-0.1c3.9,6,9.4,18.6,0.1,34.1L56.4,54.6z"/>
	<path fill="#7FC892" d="M59.8,57.7c0.6-0.1,1.2-0.2,1.8-0.2c4.7,0,8.5,3.8,8.6,8.5l0,20.5c0,0.8-0.1,1.6-0.4,2.3l10.1,0
		c-0.2-0.7-0.4-1.5-0.4-2.3l0-20.5c0-4.7,3.8-8.5,8.5-8.6c0.7,0,1.4,0.1,2,0.3l0-0.9l-30.2,0.1L59.8,57.7z"/>
	<circle fill="#7FC892" cx="90" cy="83.5" r="5.3"/>
</g>
</svg>
