<?xml version="1.0" encoding="utf-8"?>
<!-- Generator: Adobe Illustrator 18.1.1, SVG Export Plug-In . SVG Version: 6.00 Build 0)  -->
<svg version="1.1" xmlns="http://www.w3.org/2000/svg" xmlns:xlink="http://www.w3.org/1999/xlink" x="0px" y="0px"
	 viewBox="0 0 150 22.2" enable-background="new 0 0 150 22.2" xml:space="preserve">
<g id="Layer_1" display="none">
	<g display="inline">
		<path fill="#7FC892" d="M56.4,47.4c0,0-10.2-18-0.6-34.1c8.1-13.6,28.2-14,37.3-0.1c3.9,6,9.4,18.6,0.1,34.1L56.4,47.4z"/>
		<path fill="#7FC892" d="M59.8,50.4c0.6-0.1,1.2-0.2,1.8-0.2c4.7,0,8.5,3.8,8.6,8.5l0,20.5c0,0.8-0.1,1.6-0.4,2.3l10.1,0
			c-0.2-0.7-0.4-1.5-0.4-2.3l0-20.5c0-4.7,3.8-8.5,8.5-8.6c0.7,0,1.4,0.1,2,0.3l0-0.9l-30.2,0.1L59.8,50.4z"/>
		<circle fill="#7FC892" cx="90" cy="76.2" r="5.3"/>
	</g>
</g>
<g id="Layer_2">
	<g>
		<path fill="#7FC892" d="M13.4,12.9h-0.7v3.2h-2.4V3.8h3.1c2.5,0,4.6,2.1,4.6,4.6C17.9,10.9,15.9,12.9,13.4,12.9z M13.4,6.3h-0.7
			v4.2h0.7c1.2,0,2.1-1,2.1-2.1S14.5,6.3,13.4,6.3z"/>
		<path fill="#7FC892" d="M19.5,6.9V4.6h2.3v2.3H19.5z M19.5,16.1V7.7h2.3v8.4H19.5z"/>
		<path fill="#7FC892" d="M25.9,8.4c0.4-0.5,1.1-0.9,1.8-0.9c1.4,0,2.4,1,2.4,2.9v5.8h-2.3v-5.4c0-0.6-0.3-1-1-1
			c-0.4,0-0.8,0.3-1,0.6v5.7h-2.3V7.7h2.3V8.4z"/>
		<path fill="#7FC892" d="M40.1,15.3c0,2.8-2.2,4.4-4.4,4.4c-0.3,0-0.8-0.1-1.1-0.1v-2.3c0.2,0,0.5,0.1,0.8,0.1
			c1.2,0,2.1-0.6,2.3-1.8c-0.5,0.5-1.2,0.8-2.1,0.8c-2.1,0-4.1-2-4.1-4.5s2-4.5,4.1-4.5c1,0,1.6,0.3,2.1,0.8V7.7h2.3V15.3z
			 M37.8,10.6c-0.4-0.5-1-0.8-1.7-0.8c-1.2,0-2.2,1-2.2,2.2s1,2.2,2.2,2.2c0.7,0,1.3-0.3,1.7-0.8V10.6z"/>
		<path fill="#7FC892" d="M50.2,12.9h-0.7v3.2h-2.4V3.8h3.1c2.5,0,4.6,2.1,4.6,4.6C54.8,10.9,52.7,12.9,50.2,12.9z M50.2,6.3h-0.7
			v4.2h0.7c1.2,0,2.1-1,2.1-2.1S51.4,6.3,50.2,6.3z"/>
		<path fill="#7FC892" d="M55.2,11.9c0-2.5,2-4.5,4.5-4.5s4.5,2,4.5,4.5s-2,4.5-4.5,4.5S55.2,14.4,55.2,11.9z M59.7,14.1
			c1.2,0,2.2-1,2.2-2.2s-1-2.2-2.2-2.2c-1.2,0-2.2,1-2.2,2.2S58.5,14.1,59.7,14.1z"/>
		<path fill="#7FC892" d="M67.9,8.4c0.4-0.5,1.1-0.9,1.8-0.9c1.4,0,2.4,1,2.4,2.9v5.8h-2.3v-5.4c0-0.6-0.3-1-1-1
			c-0.4,0-0.8,0.3-1,0.6v5.7h-2.3V7.7h2.3V8.4z"/>
		<path fill="#7FC892" d="M82.1,15.3c0,2.8-2.2,4.4-4.4,4.4c-0.3,0-0.8-0.1-1.1-0.1v-2.3c0.2,0,0.5,0.1,0.8,0.1
			c1.2,0,2.1-0.6,2.3-1.8c-0.5,0.5-1.2,0.8-2.1,0.8c-2.1,0-4.1-2-4.1-4.5s2-4.5,4.1-4.5c1,0,1.6,0.3,2.1,0.8V7.7h2.3V15.3z
			 M79.8,10.6c-0.4-0.5-1-0.8-1.7-0.8c-1.2,0-2.2,1-2.2,2.2s1,2.2,2.2,2.2c0.7,0,1.3-0.3,1.7-0.8V10.6z"/>
		<path fill="#7FC892" d="M99.3,14.5c-1.2,1.2-2.8,1.9-4.5,1.9c-3.5,0-6.4-2.9-6.4-6.4c0-3.5,2.9-6.4,6.4-6.4c1.8,0,3.4,0.7,4.5,1.9
			l-1.7,1.7C96.8,6.4,95.8,6,94.7,6c-2.2,0-4,1.8-4,4c0,2.2,1.8,4,4,4c1.1,0,2.1-0.5,2.8-1.2L99.3,14.5z"/>
		<path fill="#7FC892" d="M107.4,15.1c-0.8,0.8-1.9,1.3-3.2,1.3c-2.5,0-4.5-2-4.5-4.5s2-4.5,4.5-4.5s4.5,2,4.5,4.5
			c0,0.3,0,0.6-0.1,0.9h-6.4c0.3,0.8,1.1,1.3,2,1.3c0.6,0,1.1-0.2,1.5-0.6L107.4,15.1z M102.3,11h3.9c-0.3-0.8-1.1-1.3-2-1.3
			C103.4,9.8,102.6,10.3,102.3,11z"/>
		<path fill="#7FC892" d="M112.5,8.4c0.4-0.5,1.1-0.9,1.8-0.9c1.4,0,2.4,1,2.4,2.9v5.8h-2.3v-5.4c0-0.6-0.3-1-1-1
			c-0.4,0-0.8,0.3-1,0.6v5.7h-2.3V7.7h2.3V8.4z"/>
		<path fill="#7FC892" d="M122.4,10h-1.3v6.1h-2.3V10h-1V7.7h1V5.5l2.3-1.1v3.3h1.3V10z"/>
		<path fill="#7FC892" d="M127.6,9.8L127.6,9.8c-0.6,0-1.5,0.4-1.8,1v5.4h-2.3V7.7h2.3v0.7c0.4-0.5,1.1-0.9,1.8-0.9V9.8z"/>
		<path fill="#7FC892" d="M134.3,15.6c-0.5,0.5-1.2,0.8-2.1,0.8c-2.1,0-4.1-2-4.1-4.5s2-4.5,4.1-4.5c1,0,1.6,0.3,2.1,0.8V7.7h2.3
			v8.4h-2.3V15.6z M134.3,10.6c-0.4-0.5-1-0.8-1.7-0.8c-1.2,0-2.2,1-2.2,2.2s1,2.2,2.2,2.2c0.7,0,1.3-0.3,1.7-0.8V10.6z"/>
		<path fill="#7FC892" d="M138.4,16.1V3.8h2.3v12.3H138.4z"/>
	</g>
</g>
</svg>
